HIERARCHY
ROOT joint_Root
{
	OFFSET 0.0 0.0 0.0
	CHANNELS 6 Xposition Yposition Zposition Zrotation Xrotation Yrotation 
	JOINT Hips
	{
		OFFSET 4.5925 91.4895 -427.239
		CHANNELS 6 Xposition Yposition Zposition Zrotation Xrotation Yrotation 
		JOINT Spine
		{
			OFFSET 15.7357 0.0 0.0
			CHANNELS 6 Xposition Yposition Zposition Zrotation Xrotation Yrotation 
			JOINT Chest
			{
				OFFSET 8.98455 -0.406207 0.0
				CHANNELS 6 Xposition Yposition Zposition Zrotation Xrotation Yrotation 
				JOINT Neck
				{
					OFFSET 16.3773 0.0 0.0
					CHANNELS 6 Xposition Yposition Zposition Zrotation Xrotation Yrotation 
					JOINT Head
					{
						OFFSET 6.45672 0.0 0.0
						CHANNELS 6 Xposition Yposition Zposition Zrotation Xrotation Yrotation 
						End Site
						{
							OFFSET 0.0 0.0 0.0
						}
					}
				}
				JOINT Shoulder_L
				{
					OFFSET 12.9942 -0.242716 4.98039
					CHANNELS 6 Xposition Yposition Zposition Zrotation Xrotation Yrotation 
					JOINT UpperArm_L
					{
						OFFSET 5.34809 0.0 0.0
						CHANNELS 6 Xposition Yposition Zposition Zrotation Xrotation Yrotation 
						JOINT LowerArm_L
						{
							OFFSET 24.3286 1.87007e-05 0.0
							CHANNELS 6 Xposition Yposition Zposition Zrotation Xrotation Yrotation 
							JOINT Hand_L
							{
								OFFSET 22.2916 0.0 0.0
								CHANNELS 6 Xposition Yposition Zposition Zrotation Xrotation Yrotation 
								End Site
								{
									OFFSET 0.0 0.0 0.0
								}
							}
						}
					}
				}
				JOINT Shoulder_R
				{
					OFFSET 12.9945 -0.242716 -4.98039
					CHANNELS 6 Xposition Yposition Zposition Zrotation Xrotation Yrotation 
					JOINT UpperArm_R
					{
						OFFSET -5.34813 0.0 0.0
						CHANNELS 6 Xposition Yposition Zposition Zrotation Xrotation Yrotation 
						JOINT LowerArm_R
						{
							OFFSET -24.3289 0.000322201 0.0
							CHANNELS 6 Xposition Yposition Zposition Zrotation Xrotation Yrotation 
							JOINT Hand_R
							{
								OFFSET -22.2915 -0.000108084 0.0
								CHANNELS 6 Xposition Yposition Zposition Zrotation Xrotation Yrotation 
								End Site
								{
									OFFSET 0.0 0.0 0.0
								}
							}
						}
					}
				}
			}
		}
		JOINT UpperLeg_L
		{
			OFFSET -2.19248 -6.46944 0.0
			CHANNELS 6 Xposition Yposition Zposition Zrotation Xrotation Yrotation 
			JOINT LowerLeg_L
			{
				OFFSET 39.0811 0.0 -1.23785e-05
				CHANNELS 6 Xposition Yposition Zposition Zrotation Xrotation Yrotation 
				JOINT Foot_L
				{
					OFFSET 40.9854 0.0 -1.26872e-05
					CHANNELS 6 Xposition Yposition Zposition Zrotation Xrotation Yrotation 
					JOINT Toes_L
					{
						OFFSET 11.7543 0.0 0.0
						CHANNELS 6 Xposition Yposition Zposition Zrotation Xrotation Yrotation 
						End Site
						{
							OFFSET 0.0 0.0 0.0
						}
					}
				}
			}
		}
		JOINT UpperLeg_R
		{
			OFFSET -2.19251 6.46944 0.0
			CHANNELS 6 Xposition Yposition Zposition Zrotation Xrotation Yrotation 
			JOINT LowerLeg_R
			{
				OFFSET -39.0811 -0.00228153 -0.0401928
				CHANNELS 6 Xposition Yposition Zposition Zrotation Xrotation Yrotation 
				JOINT Foot_R
				{
					OFFSET -40.9854 0.0 0.0
					CHANNELS 6 Xposition Yposition Zposition Zrotation Xrotation Yrotation 
					JOINT Toes_R
					{
						OFFSET -11.7543 0.0 0.0
						CHANNELS 6 Xposition Yposition Zposition Zrotation Xrotation Yrotation 
						End Site
						{
							OFFSET 0.0 0.0 0.0
						}
					}
				}
			}
		}
	}
}
MOTION
Frames:	6
Frame Time:	0.0333333
0.000000 0.000000 0.000000 0.000000 0.000000 -0.000000 -112.135000 89.857300 183.420000 90.033900 84.765000 1.917890 15.735700 0.000005 -0.000001 92.679000 80.310100 -92.557000 8.984550 -0.406207 -0.000000 11.592600 0.902450 0.152277 16.377300 -0.000001 -0.000001 2.113700 -2.024850 1.458220 6.456720 -0.000001 -0.000000 -4.649300 -1.537630 0.220215 12.994200 -0.242716 4.980390 -91.329200 4.582650 -73.805800 5.348090 -0.000007 -0.000001 -70.860300 26.441800 -8.410890 24.328600 0.000019 0.000005 10.017400 24.637700 -22.963800 22.291600 -0.000001 0.000005 13.321000 5.158830 3.731000 12.994500 -0.242716 -4.980390 88.719500 8.687200 -81.581600 -5.348130 -0.000001 -0.000004 -51.299800 29.427700 -24.230100 -24.328900 0.000322 -0.000009 2.293530 3.444450 -33.700800 -22.291500 -0.000108 -0.000004 20.045800 5.424180 -3.740260 -2.192480 -6.469440 -0.000000 178.898000 -16.551600 -25.919500 39.081100 -0.000007 -0.000012 0.107413 -0.213399 26.718100 40.985400 -0.000006 -0.000013 2.245410 4.249690 -55.608900 11.754300 -0.000000 0.000003 -0.000138 -0.002289 -16.670400 -2.192510 6.469440 -0.000001 174.485000 18.281000 173.420000 -39.081100 -0.002282 -0.040193 -0.031560 0.052390 33.634900 -40.985400 0.000008 0.000006 3.007100 6.519080 -74.704000 -11.754300 -0.000006 -0.000006 -0.000574 -0.009163 -16.946000
0.000000 0.000000 0.000000 0.000000 0.000000 -0.000000 -109.667000 89.392900 182.767000 92.522800 83.881100 -0.334353 15.735700 0.000005 -0.000001 93.447400 80.360500 -93.691900 8.984550 -0.406207 -0.000000 11.482300 1.142040 -0.603717 16.377300 -0.000001 -0.000001 2.434560 -2.215960 1.636440 6.456720 -0.000001 -0.000000 -4.579650 -1.953870 0.964357 12.994200 -0.242716 4.980390 -91.296200 4.454310 -73.757600 5.348090 -0.000007 -0.000001 -71.012800 26.017400 -7.716950 24.328600 0.000019 0.000005 9.640920 26.175900 -21.061100 22.291600 -0.000001 0.000005 12.623300 5.150500 3.931090 12.994500 -0.242716 -4.980390 88.700700 8.816100 -81.582400 -5.348130 -0.000001 -0.000004 -51.105900 29.770300 -24.277300 -24.328900 0.000322 -0.000009 2.384110 3.578450 -33.717800 -22.291500 -0.000108 -0.000004 19.850900 5.424390 -3.747580 -2.192480 -6.469440 -0.000000 178.969000 -15.368800 -26.053700 39.081100 -0.000007 -0.000012 0.057941 -0.101602 29.694900 40.985400 -0.000006 -0.000013 2.216820 2.661590 -52.577000 11.754300 -0.000000 0.000003 -0.000206 -0.003406 -16.715800 -2.192510 6.469440 -0.000001 173.243000 16.818300 174.923000 -39.081100 -0.002282 -0.040193 0.047447 -0.064471 34.406400 -40.985400 0.000008 0.000006 2.995750 5.985130 -76.500700 -11.754300 -0.000006 -0.000006 -0.000863 -0.013447 -17.120100
0.000000 0.000000 0.000000 0.000000 0.000000 -0.000000 -107.144000 88.920300 182.052000 95.557000 82.913200 -3.335660 15.735700 0.000005 -0.000001 94.116900 80.545900 -94.829700 8.984550 -0.406207 -0.000000 11.104200 1.326410 -1.553870 16.377300 -0.000001 -0.000001 2.315320 -2.524240 1.687420 6.456720 -0.000001 -0.000000 -4.095280 -2.433050 1.652100 12.994200 -0.242716 4.980390 -91.327300 4.551710 -73.723900 5.348090 -0.000007 -0.000001 -70.664600 25.452000 -6.951760 24.328600 0.000019 0.000005 9.393750 26.953400 -20.051400 22.291600 -0.000001 0.000005 12.234600 5.145790 4.043570 12.994500 -0.242716 -4.980390 88.620400 9.135630 -81.374800 -5.348130 -0.000001 -0.000004 -51.566500 30.061200 -23.612700 -24.328900 0.000322 -0.000009 2.452250 3.681320 -33.715100 -22.291500 -0.000108 -0.000004 19.743200 5.426640 -3.824110 -2.192480 -6.469440 -0.000000 178.850000 -14.008500 -26.625500 39.081100 -0.000007 -0.000012 -0.045470 0.066318 34.436300 40.985400 -0.000006 -0.000013 1.899760 0.683460 -56.222800 11.754300 -0.000000 0.000003 -0.000025 -0.000313 -16.589800 -2.192510 6.469440 -0.000001 171.838000 15.416700 175.517000 -39.081100 -0.002282 -0.040193 0.046722 -0.059582 36.091000 -40.985400 0.000008 0.000006 2.338730 5.565670 -76.992700 -11.754300 -0.000006 -0.000006 -0.537011 -0.659071 -18.002900
0.000000 0.000000 0.000000 0.000000 0.000000 -0.000000 -104.762000 88.562100 181.440000 93.961400 82.646500 -1.290430 15.735700 0.000005 -0.000001 94.334600 80.516900 -95.292700 8.984550 -0.406207 -0.000000 11.160900 1.394190 -2.051520 16.377300 -0.000001 -0.000001 1.933100 -2.934090 1.557020 6.456720 -0.000001 -0.000000 -4.110080 -3.073560 2.061620 12.994200 -0.242716 4.980390 -91.300600 4.482040 -73.800200 5.348090 -0.000007 -0.000001 -69.935900 25.207100 -6.959940 24.328600 0.000019 0.000005 9.260180 27.194100 -19.634400 22.291600 -0.000001 0.000005 12.233900 5.141020 4.157140 12.994500 -0.242716 -4.980390 88.606400 9.204170 -81.352000 -5.348130 -0.000001 -0.000004 -53.820100 29.181100 -21.577800 -24.328900 0.000322 -0.000009 2.717120 4.030620 -34.037200 -22.291500 -0.000108 -0.000004 19.932400 5.427350 -3.848330 -2.192480 -6.469440 -0.000000 179.130000 -12.857200 -26.273600 39.081100 -0.000007 -0.000012 -0.112020 0.142818 38.109400 40.985400 -0.000006 -0.000013 1.706430 -0.743955 -59.735600 11.754300 -0.000000 0.000003 -0.000071 -0.000766 -16.607200 -2.192510 6.469440 -0.000001 171.411000 13.938500 175.169000 -39.081100 -0.002282 -0.040193 0.045125 -0.050197 39.815400 -40.985400 0.000008 0.000006 2.239940 3.714550 -75.517100 -11.754300 -0.000006 -0.000006 -0.207146 -0.298047 -19.916400
0.000000 0.000000 0.000000 0.000000 0.000000 -0.000000 -102.573000 88.419700 180.803000 92.634000 82.103800 0.638236 15.735700 0.000005 -0.000001 94.871300 80.353300 -96.030900 8.984550 -0.406207 -0.000000 11.478100 1.587690 -2.477810 16.377300 -0.000001 -0.000001 1.466890 -3.084860 1.259090 6.456720 -0.000001 -0.000000 -4.489900 -3.530990 2.058470 12.994200 -0.242716 4.980390 -91.307500 4.518840 -73.844600 5.348090 -0.000007 -0.000001 -69.000000 24.983800 -7.684850 24.328600 0.000019 0.000005 9.188160 27.133000 -19.528200 22.291600 -0.000001 0.000005 12.803600 5.138700 4.211990 12.994500 -0.242716 -4.980390 88.644600 9.202600 -81.584600 -5.348130 -0.000001 -0.000004 -56.103300 28.240100 -19.478600 -24.328900 0.000322 -0.000009 2.349640 3.486860 -34.017300 -22.291500 -0.000108 -0.000004 20.006500 5.432210 -4.014990 -2.192480 -6.469440 -0.000000 179.121000 -13.736100 -25.067700 39.081100 -0.000007 -0.000012 -0.146857 0.173841 40.190900 40.985400 -0.000006 -0.000013 2.074870 -0.597841 -62.480600 11.754300 -0.000000 0.000003 -0.000086 -0.000908 -16.612500 -2.192510 6.469440 -0.000001 171.332000 11.999100 173.177000 -39.081100 -0.002282 -0.040193 0.075670 -0.070200 45.887400 -40.985400 0.000008 0.000006 2.963640 0.949859 -72.478800 -11.754300 -0.000006 -0.000006 -0.019493 -0.164465 -23.291600
0.000000 0.000000 0.000000 0.000000 0.000000 -0.000000 -100.669000 88.434700 180.201000 92.647200 81.686200 0.912491 15.735700 0.000005 -0.000001 94.608300 80.313500 -95.963300 8.984550 -0.406207 -0.000000 11.566500 1.498930 -2.861040 16.377300 -0.000001 -0.000001 1.109090 -2.983620 0.860165 6.456720 -0.000001 -0.000000 -4.713020 -3.678050 1.922270 12.994200 -0.242716 4.980390 -91.326900 4.563750 -73.769400 5.348090 -0.000007 -0.000001 -68.081900 24.512800 -8.594120 24.328600 0.000019 0.000005 9.421990 26.957900 -20.105100 22.291600 -0.000001 0.000005 13.233000 5.131560 4.380850 12.994500 -0.242716 -4.980390 88.676100 9.234000 -81.804500 -5.348130 -0.000001 -0.000004 -57.521800 28.576000 -18.183300 -24.328900 0.000322 -0.000009 1.916800 2.944960 -33.095500 -22.291500 -0.000108 -0.000004 19.814300 5.435050 -4.113230 -2.192480 -6.469440 -0.000000 178.866000 -14.361900 -23.775000 39.081100 -0.000007 -0.000012 -0.158020 0.181469 41.049200 40.985400 -0.000006 -0.000013 2.415650 -0.621500 -64.423000 11.754300 -0.000000 0.000003 -0.000091 -0.000947 -16.614000 -2.192510 6.469440 -0.000001 171.503000 10.420200 169.586000 -39.081100 -0.002282 -0.040193 0.113519 -0.083307 52.933000 -40.985400 0.000008 0.000006 3.578190 -2.313460 -67.586600 -11.754300 -0.000006 -0.000006 -0.024200 -0.189533 -24.325600
